<?xml version="1.0" encoding="utf-8"?>
<!-- Generator: Adobe Illustrator 26.3.1, SVG Export Plug-In . SVG Version: 6.00 Build 0)  -->
<svg version="1.1" id="Layer_1" xmlns="http://www.w3.org/2000/svg" xmlns:xlink="http://www.w3.org/1999/xlink" x="0px" y="0px"
	 viewBox="0 0 16 16" style="enable-background:new 0 0 16 16;" xml:space="preserve">
<g>
	<path d="M14.2,15H1.8c-0.3-0.1-0.4-0.2-0.4-0.6V7.8c0-0.1,0-0.2-0.1-0.2C0.6,7.2,0.1,6.7,0,5.9c-0.1-0.2,0-0.6,0.2-0.8
		c0.8-1.3,1.5-2.6,2.2-3.8C2.5,1.1,2.7,1,2.9,1h10.2c0.2,0,0.4,0.1,0.5,0.3C14.4,2.6,15.2,4,16,5.5v0.3c-0.1,0.8-0.6,1.5-1.2,1.8
		c-0.1,0.1-0.1,0.1-0.1,0.2v6.7C14.6,14.8,14.5,14.9,14.2,15z M3.5,14.2v-4.1c0-0.8,0.5-1.4,1.3-1.4H6c0.2,0,0.4,0.1,0.7,0.1
		C7.2,9,7.5,9.5,7.4,10.1v4.2h6.5V7.9c-0.8,0.1-1.6-0.3-2.1-1c-0.7,1-2.2,1.3-3.2,0.6C8.4,7.3,8.2,7.2,8,6.9c-0.8,1-2.2,1.3-3.2,0.6
		C4.6,7.3,4.3,7.1,4.2,6.9c-0.5,0.7-1.2,1-2,1v6.3C2.1,14.2,3.5,14.2,3.5,14.2z M14.9,5.1C14.9,5,14.8,5,14.9,5.1l-1.8-3.1
		c-0.1,0-0.1-0.1-0.2-0.1H3.2C3.1,1.8,3,1.9,3,2C2.4,3,1.8,4,1.2,5c0,0-0.1,0.1-0.1,0.1C1.1,5.1,14.8,5.1,14.9,5.1z M6.6,14.2V10
		c0-0.3-0.2-0.6-0.6-0.6H4.9c-0.4,0-0.7,0.2-0.7,0.7v4.1C4.2,14.2,6.6,14.2,6.6,14.2z M0.8,5.8C1,6.6,1.7,7.1,2.4,7.1
		C3.1,7,3.7,6.5,3.8,5.8H0.8z M4.6,5.8c0.2,0.8,0.8,1.3,1.6,1.2C6.8,7,7.4,6.5,7.5,5.8H4.6z M8.4,5.8c0.2,0.8,1,1.3,1.8,1.1
		c0.6-0.2,1-0.6,1.1-1.1C11.4,5.8,8.5,5.8,8.4,5.8z M15.2,5.8h-2.9c0.1,0.7,0.7,1.2,1.4,1.2C14.4,7.1,15,6.6,15.2,5.8z"/>
	<path d="M10.2,12.4h-1c-0.6,0.1-1.1-0.4-1.1-1V9.8c-0.1-0.6,0.4-1.1,1-1.1h2.1c0.6-0.1,1.1,0.4,1.1,1v1.7c0.1,0.6-0.4,1.1-1,1.1
		h-0.1C11,12.5,10.6,12.5,10.2,12.4z M10.2,11.6h1.1c0.2,0,0.4-0.1,0.4-0.4V9.7c0.1-0.1-0.1-0.3-0.2-0.4H9.2C9,9.4,8.9,9.5,8.9,9.7
		v1.6c0,0.2,0.1,0.4,0.4,0.4H10.2z"/>
</g>
</svg>
