<?xml version="1.0" encoding="utf-8"?>
<!-- Generator: Adobe Illustrator 26.3.1, SVG Export Plug-In . SVG Version: 6.00 Build 0)  -->
<svg version="1.1" id="Layer_1" xmlns="http://www.w3.org/2000/svg" xmlns:xlink="http://www.w3.org/1999/xlink" x="0px" y="0px"
	 viewBox="0 0 16 16" style="enable-background:new 0 0 16 16;" xml:space="preserve">
<g>
	<path d="M16,7.4c-0.1,0.1-0.1,0.2-0.2,0.3c-0.2,0.2-0.4,0.2-0.6,0.1c-0.2-0.1-0.4-0.3-0.4-0.5c0-0.1,0-0.2,0-0.2V3.9
		c0-0.8-0.5-1.4-1.4-1.4h-0.7c0,0.2,0,0.4,0,0.6c0,0.3-0.3,0.6-0.6,0.6c-0.1,0-0.2,0-0.3-0.1c-0.2-0.1-0.3-0.3-0.3-0.5
		c0-0.2,0-0.4,0-0.6H8.6V3c0,0.5-0.2,0.8-0.6,0.8C7.6,3.8,7.3,3.5,7.3,3V2.5H4.5c0,0.2,0,0.4,0,0.6c0,0.3-0.2,0.5-0.4,0.6
		C3.7,3.8,3.3,3.6,3.3,3.1c0-0.2,0-0.4,0-0.7c-0.4,0-0.7,0-1.1,0.1c-0.6,0.1-0.9,0.6-1,1.2c0,0,0,0.1,0,0.1v9.6c0,0.5,0.2,1,0.7,1.2
		c0.2,0.1,0.4,0.1,0.6,0.1c1.5,0,3.1,0,4.6,0c0.2,0,0.4,0,0.5,0.2c0.3,0.3,0.2,0.8-0.2,1c0,0-0.1,0-0.1,0.1H2.2c0,0,0,0-0.1,0
		c-0.9-0.1-1.5-0.6-1.9-1.4C0.1,14.3,0.1,14,0,13.8V3.5c0,0,0-0.1,0-0.1C0.2,2.6,0.5,2,1.2,1.6c0.5-0.3,1-0.4,1.5-0.4
		c0.2,0,0.4,0,0.6,0c0-0.2,0-0.3,0-0.5c0-0.4,0.1-0.7,0.5-0.8H4c0.4,0.1,0.5,0.4,0.5,0.8c0,0.2,0,0.3,0,0.5h2.8c0-0.2,0-0.3,0-0.5
		c0-0.4,0.1-0.6,0.5-0.8h0.2c0.4,0.1,0.5,0.4,0.5,0.8c0,0.2,0,0.3,0,0.5h2.8c0-0.2,0-0.3,0-0.5c0-0.4,0.1-0.6,0.5-0.8h0.2
		c0.4,0.1,0.5,0.4,0.5,0.8c0,0.2,0,0.3,0,0.5c0.3,0,0.6,0,0.9,0c1,0.1,1.7,0.5,2.2,1.4c0.1,0.2,0.2,0.5,0.3,0.8
		C16,4.8,16,6.1,16,7.4z"/>
	<path d="M11.9,16c-0.4-0.1-0.7-0.1-1.1-0.3c-1.6-0.6-2.6-2.4-2.3-4.1c0.3-1.5,1.1-2.5,2.6-3c1.5-0.5,2.8-0.1,3.9,1
		c0.6,0.6,0.9,1.3,1,2.2c0,0,0,0.1,0,0.1v0.6c0,0.1,0,0.1,0,0.1c-0.2,1.5-1.1,2.5-2.5,3.1c-0.3,0.1-0.7,0.2-1,0.2
		C12.3,16,12.1,16,11.9,16z M14.8,12.2c0-1.4-1.1-2.5-2.5-2.5c-1.4,0-2.5,1.1-2.5,2.5c0,1.4,1.1,2.5,2.5,2.5
		C13.6,14.8,14.8,13.6,14.8,12.2z M4.5,6.6c0,0.3-0.3,0.6-0.6,0.6c-0.3,0-0.6-0.3-0.6-0.6c0-0.3,0.3-0.6,0.6-0.6
		C4.2,5.9,4.5,6.2,4.5,6.6z M7.2,6.6c0,0.3-0.3,0.6-0.6,0.6C6.3,7.2,6,6.9,6,6.6c0-0.3,0.3-0.6,0.6-0.6C7,5.9,7.2,6.2,7.2,6.6z
		 M10,6.6c0,0.3-0.3,0.6-0.6,0.6C9,7.2,8.7,6.9,8.7,6.6c0,0,0,0,0,0c0-0.3,0.3-0.6,0.6-0.6C9.7,5.9,10,6.2,10,6.6L10,6.6z M12.7,6.6
		c0,0.3-0.3,0.6-0.6,0.6c-0.3,0-0.6-0.3-0.6-0.6c0,0,0,0,0,0c0-0.3,0.3-0.6,0.6-0.6C12.4,5.9,12.7,6.2,12.7,6.6z M3.9,9.9
		c-0.3,0-0.6-0.3-0.6-0.6c0-0.3,0.3-0.6,0.6-0.6c0.3,0,0.6,0.3,0.6,0.6C4.5,9.6,4.3,9.9,3.9,9.9z M6.6,8.7c0.3,0,0.6,0.3,0.6,0.6
		c0,0.3-0.3,0.6-0.6,0.6C6.3,9.9,6,9.6,6,9.3C6,8.9,6.3,8.7,6.6,8.7z M3.9,12.6c-0.3,0-0.6-0.3-0.6-0.6c0-0.3,0.3-0.6,0.6-0.6
		c0.3,0,0.6,0.3,0.6,0.6C4.5,12.3,4.3,12.6,3.9,12.6L3.9,12.6z M6.6,11.4c0.3,0,0.6,0.3,0.6,0.6c0,0.3-0.3,0.6-0.6,0.6
		C6.3,12.6,6,12.3,6,12C6,11.7,6.3,11.4,6.6,11.4C6.6,11.4,6.6,11.4,6.6,11.4L6.6,11.4z"/>
	<path d="M12.8,11.6c0.1,0,0.2,0,0.3,0c0.3,0,0.6,0.3,0.6,0.6c0,0.3-0.3,0.6-0.6,0.6c-0.3,0-0.7,0-1,0c-0.3,0-0.6-0.3-0.6-0.6
		c0-0.4,0-0.9,0-1.3c0-0.3,0.3-0.6,0.6-0.6c0.3,0,0.6,0.3,0.6,0.6C12.8,11.1,12.8,11.4,12.8,11.6z"/>
</g>
</svg>
