<?xml version="1.0" encoding="utf-8"?>
<!-- Generator: Adobe Illustrator 26.3.1, SVG Export Plug-In . SVG Version: 6.00 Build 0)  -->
<svg version="1.1" id="Layer_1" xmlns="http://www.w3.org/2000/svg" xmlns:xlink="http://www.w3.org/1999/xlink" x="0px" y="0px"
	 viewBox="0 0 16 16" style="enable-background:new 0 0 16 16;" xml:space="preserve">
<g>
	<path d="M0,6c-0.1-0.9,0.2-1.8,0.9-2.6l0.9-0.9c0.3-0.3,0.8-0.3,1.2,0l0,0C3.8,3.3,4.7,4.2,5.5,5c0.3,0.3,0.4,0.9,0.1,1.2L5.5,6.3
		c-0.3,0.3-0.7,0.7-1,1C4.2,7.5,4.2,7.9,4.3,8.2c0,0,0,0.1,0.1,0.1c0.2,0.2,0.3,0.4,0.4,0.6C5,9.1,5,9.2,4.8,9.3
		C4.7,9.5,4.5,9.4,4.3,9.2C4.2,9,4,8.7,3.8,8.5C3.5,8,3.5,7.4,4,7l1-1C5.1,5.9,5.1,5.7,5,5.5C5,5.5,5,5.5,4.9,5.4
		C4.2,4.6,3.4,3.8,2.6,3C2.5,2.9,2.3,2.8,2.2,2.9C1.5,3.4,1,4.1,0.7,4.9C0.5,5.6,0.6,6.4,0.9,7c1.6,3.5,4.4,6.3,7.9,8
		c1.2,0.6,2.6,0.4,3.6-0.6l0.6-0.6c0.1-0.1,0.1-0.3,0.1-0.4c0-0.1-0.1-0.1-0.1-0.1L10.6,11c-0.1-0.1-0.2-0.2-0.4-0.1
		c-0.1,0-0.1,0.1-0.1,0.1l-0.9,0.9c-0.4,0.6-1.2,0.6-1.8,0.2c-0.3-0.2-0.7-0.4-0.9-0.7c-0.2-0.1-0.2-0.3-0.1-0.5s0.3-0.1,0.4,0
		c0.3,0.2,0.7,0.5,1,0.7c0.3,0.2,0.7,0.2,0.8-0.1c0,0,0-0.1,0.1-0.1l1-1c0.3-0.4,0.9-0.4,1.2-0.1l0.1,0.1l2.4,2.5
		c0.4,0.3,0.4,0.9,0.1,1.2l-0.1,0.1c-0.6,0.7-1.3,1.2-2.1,1.6c-0.9,0.3-1.8,0.2-2.6-0.2C5,13.9,2.1,10.9,0.3,7.3
		C0.2,6.9,0.1,6.4,0,6z M9.4,0c3.2,0.2,5.9,2.5,6.5,5.6C15.9,6,16,6.3,16,6.8c0,0.2,0,0.4-0.3,0.4c-0.3,0-0.4-0.2-0.4-0.4
		c0-2.7-1.6-4.9-4.2-5.8c-0.6-0.1-1.2-0.3-1.8-0.4C8.9,0.6,8.8,0.5,8.8,0.3S8.9,0,9.4,0z"/>
	<path d="M14.1,6.7c0,0.2-0.1,0.4-0.3,0.4c-0.2,0.1-0.4-0.1-0.4-0.4c-0.1-1.5-0.8-2.8-2-3.5C10.8,2.7,10,2.5,9.2,2.5
		c-0.2,0-0.4,0-0.4-0.3S9,1.9,9.2,1.9c2.3,0.1,4.2,1.7,4.7,3.9C14,6.1,14.1,6.4,14.1,6.7z"/>
	<path d="M12.2,6.8c0,0.2-0.1,0.4-0.3,0.4s-0.3-0.2-0.4-0.4c0-1.3-1.1-2.4-2.4-2.4C9,4.4,8.8,4.3,8.8,4.1S9,3.8,9.2,3.8
		C10.8,3.8,12.2,5.2,12.2,6.8z M9.1,5.7c0.7,0,1.2,0.5,1.3,1.2c-0.1,0.2-0.1,0.2-0.3,0.3C9.9,7.3,9.8,7.2,9.7,7
		c0-0.3-0.3-0.7-0.6-0.7C8.9,6.3,8.8,6.2,8.8,6S9,5.7,9.1,5.7z M5.6,9.8c0.1,0.1,0.2,0.2,0.2,0.4c-0.1,0.1-0.2,0.2-0.3,0.2
		c-0.2-0.1-0.2-0.1-0.3-0.2c0-0.1,0.2-0.2,0.2-0.4C5.4,9.8,5.6,9.8,5.6,9.8z"/>
</g>
</svg>
