<?xml version="1.0" encoding="utf-8"?>
<!-- Generator: Adobe Illustrator 26.3.1, SVG Export Plug-In . SVG Version: 6.00 Build 0)  -->
<svg version="1.1" id="Layer_1" xmlns="http://www.w3.org/2000/svg" xmlns:xlink="http://www.w3.org/1999/xlink" x="0px" y="0px"
	 viewBox="0 0 16 16" style="enable-background:new 0 0 16 16;" xml:space="preserve">
<g>
	<path d="M0,8.5V7.5c0,0,0-0.1,0-0.1c0.1-1.1,0.4-2.2,0.9-3.2c1.5-2.6,3.7-4,6.7-4.2c1.4-0.1,2.8,0.2,4.1,0.9
		c2.6,1.5,4.1,3.7,4.2,6.7c0.1,1.4-0.2,2.8-0.9,4.1c-1.2,2.3-3.1,3.6-5.7,4.1C9.1,15.9,8.8,16,8.5,16H7.5c0,0-0.1,0-0.1,0
		c-1-0.1-1.9-0.3-2.8-0.7c-2.5-1.2-4-3.2-4.5-5.8C0.1,9.1,0,8.8,0,8.5L0,8.5z M8,15c3.9,0,7-3.1,7-7c0-3.9-3.1-7-7-7
		C4.1,1,1,4.1,1,8C1,11.9,4.1,15,8,15z"/>
	<path d="M9.8,8C8.6,6.8,7.4,5.6,6.2,4.4c0.2-0.2,0.5-0.5,0.7-0.7c0,0,0.1,0.1,0.1,0.1C8.2,5,9.5,6.3,10.8,7.6
		c0.3,0.3,0.3,0.6,0,0.9C9.5,9.7,8.2,11,7,12.2c0,0-0.1,0.1-0.1,0.1l-0.7-0.7C7.4,10.5,8.6,9.2,9.8,8L9.8,8z"/>
</g>
</svg>
