<?xml version="1.0" encoding="utf-8"?>
<!-- Generator: Adobe Illustrator 26.3.1, SVG Export Plug-In . SVG Version: 6.00 Build 0)  -->
<svg version="1.1" id="Layer_1" xmlns="http://www.w3.org/2000/svg" xmlns:xlink="http://www.w3.org/1999/xlink" x="0px" y="0px"
	 viewBox="0 0 16 16" style="enable-background:new 0 0 16 16;" xml:space="preserve">
<g>
	<path d="M8.5,16h-1H7.4c-1.1-0.1-2.2-0.4-3.2-0.9c-2.6-1.5-4-3.7-4.2-6.7C-0.1,7,0.2,5.6,0.9,4.3C2.4,1.6,4.7,0.2,7.7,0
		c1.4-0.1,2.8,0.2,4.1,0.9c2.3,1.2,3.6,3.1,4.1,5.7c0,0.3,0.1,0.6,0.1,0.9v0.9v0.1c-0.1,1-0.3,1.9-0.7,2.8c-1.2,2.5-3.2,4-5.8,4.5
		C9.1,15.9,8.8,16,8.5,16L8.5,16z M15,8c0-3.9-3.1-7-7-7S1,4.1,1,8s3.1,7,7,7S15,11.9,15,8z"/>
	<path d="M8,6.2C6.8,7.4,5.6,8.6,4.4,9.8C4.1,9.6,3.9,9.4,3.7,9.1L3.8,9C5,7.8,6.3,6.5,7.6,5.2c0.3-0.3,0.6-0.3,0.9,0
		C9.7,6.5,11,7.8,12.2,9l0.1,0.1l-0.7,0.7C10.4,8.6,9.2,7.4,8,6.2L8,6.2z"/>
</g>
</svg>
