<?xml version="1.0" encoding="utf-8"?>
<!-- Generator: Adobe Illustrator 26.3.1, SVG Export Plug-In . SVG Version: 6.00 Build 0)  -->
<svg version="1.1" id="Layer_1" xmlns="http://www.w3.org/2000/svg" xmlns:xlink="http://www.w3.org/1999/xlink" x="0px" y="0px"
	 viewBox="0 0 16 16" style="enable-background:new 0 0 16 16;" xml:space="preserve">
<g>
	<path d="M16,7.6v0.9v0.1c-0.1,1.1-0.4,2.2-0.9,3.1c-1.5,2.6-3.7,4-6.7,4.2c-1.4,0.1-2.8-0.2-4.1-0.9C1.6,13.8,0.2,11.4,0,8.4
		C-0.1,7,0.2,5.6,0.9,4.2C2.2,2,4.1,0.6,6.6,0.1C6.9,0.1,7.2,0,7.5,0h0.9h0.1c1,0.1,1.9,0.3,2.8,0.7c2.5,1.2,4,3.2,4.5,5.9
		C15.9,7,16,7.3,16,7.6L16,7.6z M8,1C4.1,1,1,4.1,1,8.1s3.1,7.1,7,7.1s7-3.1,7-7.1S11.9,1,8,1z"/>
	<path d="M6.2,8.1c1.2,1.2,2.4,2.5,3.6,3.7c-0.2,0.2-0.5,0.5-0.7,0.7L9,12.4c-1.2-1.3-2.5-2.6-3.8-3.9c-0.3-0.3-0.3-0.6,0-0.9
		C6.5,6.4,7.8,5.1,9,3.8l0.1-0.1l0.7,0.7C8.6,5.7,7.4,6.9,6.2,8.1L6.2,8.1z"/>
</g>
</svg>
