<?xml version="1.0" encoding="utf-8"?>
<!-- Generator: Adobe Illustrator 26.3.1, SVG Export Plug-In . SVG Version: 6.00 Build 0)  -->
<svg version="1.1" id="Layer_1" xmlns="http://www.w3.org/2000/svg" xmlns:xlink="http://www.w3.org/1999/xlink" x="0px" y="0px"
	 viewBox="0 0 16 16" style="enable-background:new 0 0 16 16;" xml:space="preserve">
<g>
	<path d="M7.5,0h0.9c0,0,0.1,0,0.1,0c1.1,0.1,2.2,0.4,3.1,0.9c2.6,1.5,4,3.7,4.2,6.7c0.1,1.4-0.2,2.8-0.9,4.1
		c-1.5,2.6-3.7,4.1-6.7,4.2c-1.4,0.1-2.8-0.2-4.1-0.9C2,13.8,0.6,11.9,0.1,9.4C0.1,9.1,0,8.8,0,8.5V7.5c0,0,0-0.1,0-0.1
		c0.1-1,0.3-1.9,0.7-2.8c1.2-2.5,3.2-4,5.8-4.5C6.9,0.1,7.2,0,7.5,0z M1,8c0,3.9,3.1,7,7,7s7-3.1,7-7c0-3.9-3.1-7-7-7
		C4.1,1,1,4.1,1,8z"/>
	<path d="M8,9.8c1.2-1.2,2.5-2.4,3.7-3.6c0.2,0.2,0.5,0.5,0.7,0.7c0,0-0.1,0.1-0.1,0.1C11,8.2,9.7,9.5,8.4,10.8
		c-0.3,0.3-0.6,0.3-0.9,0C6.3,9.5,5,8.2,3.8,7c0,0-0.1-0.1-0.1-0.1l0.7-0.7C5.6,7.4,6.8,8.6,8,9.8L8,9.8z"/>
</g>
</svg>
