<?xml version="1.0" encoding="utf-8"?>
<!-- Generator: Adobe Illustrator 26.3.1, SVG Export Plug-In . SVG Version: 6.00 Build 0)  -->
<svg version="1.1" id="Layer_1" xmlns="http://www.w3.org/2000/svg" xmlns:xlink="http://www.w3.org/1999/xlink" x="0px" y="0px"
	 viewBox="0 0 16 16" style="enable-background:new 0 0 16 16;" xml:space="preserve">
<g>
	<path d="M1.5,13.8v-9c0,0,0,0,0-0.1C1.7,3.4,2.8,2.5,4,2.5c2,0,4,0,5.9,0c1.4,0,2.5,1.1,2.5,2.5c0,0,0,0,0,0c0,2.8,0,5.7,0,8.5
		c0,1.1-0.8,2.1-1.9,2.4c-0.1,0-0.2,0.1-0.4,0.1H3.7c0,0-0.1,0-0.1,0c-1.1-0.2-1.7-0.8-2.1-1.9C1.5,14,1.5,13.9,1.5,13.8L1.5,13.8z
		 M2.8,9.3v4.2c0,0.8,0.5,1.3,1.3,1.3h5.8c0.8,0,1.3-0.5,1.3-1.3V5.1c0-0.8-0.5-1.3-1.3-1.3H4.1c-0.8,0-1.3,0.5-1.3,1.3
		C2.7,6.5,2.7,7.9,2.8,9.3L2.8,9.3z"/>
	<path d="M15,12.1c0,0,0,0.1-0.1,0.1c-0.1,0.3-0.4,0.4-0.7,0.4c-0.3-0.1-0.5-0.3-0.5-0.6c0-0.1,0-0.1,0-0.2V2.6
		c0-0.7-0.4-1.2-1.1-1.3c-0.1,0-0.2,0-0.3,0c-2.2,0-4.5,0-6.7,0c-0.1,0-0.2,0-0.3,0C5.1,1.1,4.9,0.9,4.9,0.7c0-0.3,0.1-0.5,0.4-0.6
		c0,0,0.1,0,0.1-0.1h7.3c0,0,0.1,0,0.1,0c1,0.1,1.8,0.9,2.1,1.9c0,0.1,0.1,0.2,0.1,0.3C15,5.5,15,8.8,15,12.1z"/>
</g>
</svg>
