<?xml version="1.0" encoding="utf-8"?>
<!-- Generator: Adobe Illustrator 26.3.1, SVG Export Plug-In . SVG Version: 6.00 Build 0)  -->
<svg version="1.1" id="Layer_1" xmlns="http://www.w3.org/2000/svg" xmlns:xlink="http://www.w3.org/1999/xlink" x="0px" y="0px"
	 viewBox="0 0 16 16" style="enable-background:new 0 0 16 16;" xml:space="preserve">
<path d="M15.2,16H0.8C0.4,16,0,15.6,0,15.2v-2.4C0,12.4,0.4,12,0.8,12h14.4c0.4,0,0.8,0.4,0.8,0.8v2.4C16,15.6,15.6,16,15.2,16z"/>
<path d="M15.2,10H0.8C0.4,10,0,9.6,0,9.2V6.8C0,6.4,0.4,6,0.8,6h14.4C15.6,6,16,6.4,16,6.8v2.4C16,9.6,15.6,10,15.2,10z"/>
<path d="M15.2,4H0.8C0.4,4,0,3.6,0,3.2V0.8C0,0.4,0.4,0,0.8,0h14.4C15.6,0,16,0.4,16,0.8v2.4C16,3.6,15.6,4,15.2,4z"/>
</svg>
