<?xml version="1.0" encoding="utf-8"?>
<!-- Generator: Adobe Illustrator 26.3.1, SVG Export Plug-In . SVG Version: 6.00 Build 0)  -->
<svg version="1.1" id="Layer_1" xmlns="http://www.w3.org/2000/svg" xmlns:xlink="http://www.w3.org/1999/xlink" x="0px" y="0px"
	 viewBox="0 0 16 16" style="enable-background:new 0 0 16 16;" xml:space="preserve">
<path d="M15.2,16H9.8C9.4,16,9,15.6,9,15.2V9.8C9,9.4,9.4,9,9.8,9h5.4C15.6,9,16,9.4,16,9.8v5.4C16,15.6,15.6,16,15.2,16z"/>
<path d="M15.2,7H9.8C9.4,7,9,6.6,9,6.2V0.8C9,0.4,9.4,0,9.8,0h5.4C15.6,0,16,0.4,16,0.8v5.4C16,6.6,15.6,7,15.2,7z"/>
<path d="M6.2,16H0.8C0.4,16,0,15.6,0,15.2V9.8C0,9.4,0.4,9,0.8,9h5.4C6.6,9,7,9.4,7,9.8v5.4C7,15.6,6.6,16,6.2,16z"/>
<path d="M6.2,7H0.8C0.4,7,0,6.6,0,6.2V0.8C0,0.4,0.4,0,0.8,0h5.4C6.6,0,7,0.4,7,0.8v5.4C7,6.6,6.6,7,6.2,7z"/>
</svg>
