<?xml version="1.0" encoding="utf-8"?>
<!-- Generator: Adobe Illustrator 26.3.1, SVG Export Plug-In . SVG Version: 6.00 Build 0)  -->
<svg version="1.1" id="Layer_1" xmlns="http://www.w3.org/2000/svg" xmlns:xlink="http://www.w3.org/1999/xlink" x="0px" y="0px"
	 viewBox="0 0 16 16" style="enable-background:new 0 0 16 16;" xml:space="preserve">
<path d="M0.7,11.7c0-0.1,0.1-0.2,0.1-0.3c0.2-0.7,0.9-1.1,1.6-1.1c1.4,0,2.9,0,4.3,0h6.8c0.7,0,1.3,0.3,1.6,1
	c0.1,0.2,0.1,0.5,0.2,0.8c0,0.8,0,1.6,0,2.3c0,0.9-0.5,1.5-1.4,1.7c0,0,0,0,0,0H2.1c0,0-0.1,0-0.1,0c-0.4-0.1-0.8-0.3-1-0.7
	c-0.1-0.2-0.2-0.5-0.3-0.7L0.7,11.7L0.7,11.7z M8,15.1h5.5c0.5,0,0.8-0.3,0.8-0.8v-2.3c0-0.5-0.3-0.8-0.8-0.8H2.4
	c-0.5,0-0.8,0.3-0.8,0.8v2.3c0,0.5,0.3,0.8,0.8,0.8C2.5,15.1,8,15.1,8,15.1z M8.3,0c0.1,0,0.2,0.1,0.3,0.1c1,0.3,1.6,1.1,1.6,2.1
	c0,0.3,0,0.7,0,1c0.1,0,0.2,0,0.3,0c0.5,0.1,0.8,0.5,0.8,1c0,1.3,0,2.6,0,4c0,0.6-0.5,1-1,1.1c-1.6,0-3.1,0-4.7,0
	c-0.6,0-1.1-0.5-1.1-1.1c0-1.3,0-2.6,0-4c0-0.6,0.4-1,1-1.1c0,0,0.1,0,0.2,0c0-0.1,0-0.2,0-0.3c0-0.4,0-0.8,0.1-1.2
	C6,0.9,6.7,0.2,7.6,0c0,0,0.1,0,0.1,0L8.3,0L8.3,0z M8,8.4h2.2c0.2,0,0.3,0,0.3-0.3V4.4c0-0.2,0-0.2-0.2-0.2H5.8
	c-0.2,0-0.2,0-0.2,0.2v3.7c0,0.2,0,0.3,0.3,0.3C5.8,8.4,8,8.4,8,8.4z M9.3,3.2V2.3c0-0.1,0-0.2,0-0.2C9.2,1.4,8.7,1,8.1,0.9
	c-0.6,0-1.2,0.4-1.3,1c0,0.3,0,0.6,0,0.9c0,0.1,0,0.2,0,0.4H9.3z"/>
<path d="M8.7,13.4c-0.4-0.2-0.5-0.4-0.4-0.6c0.1-0.3,0.3-0.4,0.7-0.3c0-0.2,0-0.4,0.2-0.5C9.2,12,9.3,12,9.4,12
	c0.3,0,0.4,0.1,0.5,0.6c0.4-0.1,0.6,0,0.7,0.3c0.1,0.3,0,0.5-0.4,0.7c0.2,0.3,0.2,0.6,0,0.7c-0.2,0.2-0.4,0.1-0.7-0.2
	c-0.3,0.3-0.5,0.4-0.7,0.2C8.5,14,8.5,13.8,8.7,13.4z M11.5,13.4c-0.4-0.2-0.5-0.4-0.4-0.7c0.1-0.3,0.3-0.3,0.6-0.3
	c0.1-0.2,0.2-0.3,0.3-0.5c0.1-0.1,0.2-0.1,0.3-0.1c0.3,0,0.4,0.2,0.5,0.6c0.4-0.1,0.6,0,0.7,0.3c0.1,0.3,0,0.5-0.4,0.6
	c0.1,0.1,0.2,0.3,0.1,0.5c0,0.1-0.1,0.2-0.2,0.3c-0.2,0.2-0.5,0.1-0.7-0.2c-0.3,0.3-0.5,0.4-0.8,0.2C11.3,14,11.3,13.8,11.5,13.4z
	 M4.2,12.5c0.4-0.1,0.6,0,0.7,0.3c0.1,0.3,0,0.4-0.4,0.7c0.2,0.3,0.2,0.6,0,0.7C4.2,14.4,4,14.3,3.7,14c-0.3,0.3-0.5,0.3-0.7,0.2
	c-0.2-0.2-0.2-0.4,0-0.8c-0.2-0.1-0.4-0.1-0.4-0.3c0-0.1,0-0.2,0-0.3c0.1-0.2,0.3-0.3,0.7-0.3c0.1-0.4,0.2-0.6,0.5-0.6
	C4,12,4.1,12.1,4.2,12.5L4.2,12.5z M6.6,14c-0.3,0.3-0.5,0.4-0.7,0.2c-0.2-0.2-0.2-0.4,0-0.8c-0.2-0.1-0.4-0.1-0.4-0.3
	c0-0.1,0-0.2,0-0.3c0.1-0.3,0.3-0.3,0.7-0.3c0-0.2,0-0.4,0.2-0.5C6.4,12,6.5,12,6.6,12c0.3,0,0.4,0.2,0.5,0.6c0.4-0.1,0.6,0,0.7,0.3
	c0.1,0.3,0,0.5-0.4,0.6c0,0.2,0.1,0.3,0.1,0.5c0,0.1-0.1,0.2-0.2,0.3C7.1,14.4,6.9,14.3,6.6,14z M8.8,5.9C8.7,6.1,8.6,6.2,8.6,6.4
	c0,0.1-0.1,0.2-0.1,0.2c0,0.1,0,0.2,0,0.3c0,0.3-0.2,0.5-0.5,0.4c-0.3,0-0.4-0.2-0.4-0.5c0,0,0-0.1,0-0.1c0-0.2,0-0.3-0.1-0.4
	c-0.2-0.2-0.2-0.6,0-0.8c0.2-0.3,0.5-0.4,0.8-0.3C8.5,5.3,8.7,5.6,8.8,5.9C8.7,5.9,8.8,5.9,8.8,5.9z"/>
</svg>
