<?xml version="1.0" encoding="utf-8"?>
<!-- Generator: Adobe Illustrator 26.3.1, SVG Export Plug-In . SVG Version: 6.00 Build 0)  -->
<svg version="1.1" id="Layer_1" xmlns="http://www.w3.org/2000/svg" xmlns:xlink="http://www.w3.org/1999/xlink" x="0px" y="0px"
	 viewBox="0 0 16 16" style="enable-background:new 0 0 16 16;" xml:space="preserve">
<g>
	<path d="M1.6,0.6h12.8c0.2,0.1,0.4,0.3,0.4,0.6v7c0,0.1,0,0.1,0.1,0.2c0.5,0.1,0.9,0.4,1.1,0.9C16,9.3,16,9.4,16,9.5v4.6
		c0,0.1,0,0.1-0.1,0.1c-0.1,0.6-0.7,1.1-1.4,1.1h-0.6c-0.4,0-0.7-0.1-0.9-0.4c-0.1-0.1-0.2-0.2-0.4-0.1h-0.1
		c-0.8,0.1-1.6,0.4-2.4,0.5c-1.6,0.1-3.2,0.1-4.7,0c-1.2-0.1-2.2-0.6-3-1.5C1.8,12.9,1,12,0.2,11.1c-0.4-0.6-0.3-1.4,0.2-1.9
		C0.8,9,1,8.9,1.2,8.8V1.1C1.2,0.9,1.4,0.6,1.6,0.6z M2.2,4.4v4.5c0,0.1,0,0.2,0.2,0.3c0.1,0.1,0.2,0.1,0.2,0.2l1.3,1.4L4.1,11v-0.2
		C4,10.1,4.5,9.4,5.2,9.4h1.6C7.4,9.4,8,9.2,8.6,9c0.5-0.3,1.1-0.4,1.6-0.4c0.7,0,1.4,0.1,1.9,0.5l0.4,0.2c0.1-0.5,0.6-0.9,1.1-0.9
		V4.4H9.8v1.7c0,0.3-0.2,0.5-0.4,0.6H6.5C6.2,6.7,6,6.5,5.9,6.2V4.4H2.2z M5,11.4h4.1c0.1,0,0.2,0,0.4,0.1c0.2,0.1,0.3,0.3,0.2,0.6
		c-0.1,0.2-0.2,0.4-0.5,0.4H4.9c-0.7,0-1.2-0.2-1.7-0.8c-0.5-0.6-1-1.1-1.5-1.6C1.6,9.8,1.3,9.8,1.1,9.9s-0.2,0.4,0,0.6
		s0.3,0.4,0.5,0.6c0.6,0.7,1.2,1.4,1.8,2.1c0.5,0.6,1.3,1.1,2.2,1.1c0.6,0.1,1.1,0.1,1.6,0.1c0.8,0,1.7,0,2.5-0.1
		c1-0.1,1.9-0.3,2.9-0.6c0.1,0,0.1-0.1,0.1-0.1v-3.3c0-0.1-0.1-0.1-0.1-0.1c-0.3-0.1-0.6-0.4-0.9-0.5C10.9,9.4,10,9.4,9.2,9.7
		C9,9.8,8.7,9.9,8.4,10c-0.3,0.1-0.7,0.2-0.9,0.2H5.4c-0.2,0-0.3,0.1-0.4,0.3C4.9,10.9,5,11.1,5,11.4z M13.8,3.5v-2H9.9v2
		C9.9,3.5,13.8,3.5,13.8,3.5z M13.5,11.8v2.1c0,0.2,0.1,0.4,0.4,0.4h0.7c0.1,0,0.3-0.1,0.4-0.2C15,14,15,13.9,15,13.7V9.6
		c0-0.2-0.2-0.4-0.4-0.4h-0.6c-0.1,0-0.3,0.1-0.4,0.2c-0.1,0.1-0.1,0.2-0.1,0.4C13.5,10.4,13.5,11.1,13.5,11.8z M6,3.5v-2H2.2v2H6z
		 M8.9,1.5h-2v2h2V1.5z M8.9,4.4h-2v1.2h2V4.4z"/>
</g>
</svg>
