<?xml version="1.0" encoding="utf-8"?>
<!-- Generator: Adobe Illustrator 26.3.1, SVG Export Plug-In . SVG Version: 6.00 Build 0)  -->
<svg version="1.1" id="Layer_1" xmlns="http://www.w3.org/2000/svg" xmlns:xlink="http://www.w3.org/1999/xlink" x="0px" y="0px"
	 viewBox="0 0 16 16" style="enable-background:new 0 0 16 16;" xml:space="preserve">
<style type="text/css">
	.st0{fill-rule:evenodd;clip-rule:evenodd;}
</style>
<g>
	<path class="st0" d="M15.5,7h-1.5c-0.2-1.4-1-2.7-2.1-3.6C9.3,1.3,5.5,1.6,3.4,4.2c0,0,0,0,0,0C3.2,4.4,3.2,4.7,3.4,4.9
		S4,5,4.1,4.8C5.1,3.7,6.5,3,8,3c2.4,0,4.4,1.7,4.9,4h-1.4c-0.1,0-0.1,0-0.2,0.1c-0.1,0.1-0.1,0.2,0,0.4l2,2.4c0,0,0,0,0,0
		c0.1,0.1,0.3,0.1,0.4,0l2-2.4c0,0,0.1-0.1,0.1-0.2C15.7,7.1,15.6,7,15.5,7z"/>
	<path class="st0" d="M12.7,11.3c0-0.1-0.1-0.1-0.1-0.2c-0.2-0.2-0.5-0.1-0.7,0.1c-0.7,0.9-1.7,1.5-2.9,1.7C6.3,13.5,3.7,11.7,3.1,9
		h1.4c0.1,0,0.2-0.1,0.2-0.3c0-0.1,0-0.1-0.1-0.2l-2-2.4c-0.1-0.1-0.2-0.1-0.4,0c0,0,0,0,0,0l-2,2.4c-0.1,0.1-0.1,0.3,0,0.4
		C0.4,9,0.5,9,0.5,9h1.5c0.2,1.4,1,2.7,2.1,3.6c2.6,2.1,6.3,1.8,8.5-0.8C12.8,11.7,12.8,11.4,12.7,11.3z"/>
</g>
</svg>
