<?xml version="1.0" encoding="utf-8"?>
<!-- Generator: Adobe Illustrator 26.3.1, SVG Export Plug-In . SVG Version: 6.00 Build 0)  -->
<svg version="1.1" id="Layer_1" xmlns="http://www.w3.org/2000/svg" xmlns:xlink="http://www.w3.org/1999/xlink" x="0px" y="0px"
	 viewBox="0 0 16 16" style="enable-background:new 0 0 16 16;" xml:space="preserve">
<g>
	<path d="M2.7,16c-0.2-0.1-0.5-0.2-0.7-0.3c-0.5-0.3-0.7-0.8-0.7-1.3c0-0.6,0-1.2,0-1.8c0-0.2,0.1-0.4,0.3-0.4
		c0.2,0,0.3,0.1,0.3,0.4c0,0.6,0,1.1,0,1.7c0,0.7,0.5,1,1,1c2.8,0,5.7,0,8.5,0c0.5,0,0.8-0.3,1-0.7c0-0.1,0-0.2,0-0.3
		c0-0.5,0-1,0-1.5c0,0,0-0.1,0-0.1c-0.1,0-0.1,0-0.2,0c-1,0-2.1,0-3.1,0c-0.7,0-1.4-0.7-1.4-1.4c0-0.8,0.5-1.5,1.3-1.6
		c0.1,0,0.3,0,0.4,0c1,0,1.9,0,2.9,0c0.1,0,0.1,0,0.2,0c0,0,0,0,0,0c0-0.6,0-1.1,0-1.7c0-0.5-0.4-0.8-0.9-0.8C8.8,7,5.9,7,3,7
		C2.4,7,2,7.4,2,8C2,8.5,2,9,2,9.6c0,0.1,0,0.1,0,0.2c0,0.2-0.1,0.4-0.3,0.4c-0.2,0-0.3-0.1-0.3-0.4c0-0.6,0-1.1,0-1.7
		c0-0.9,0.7-1.6,1.6-1.6c0.4,0,0.8,0,1.2,0c0.1,0,0.1,0,0.2,0c-0.7-1-0.4-2,0.2-2.6c0.7-0.6,1.7-0.6,2.4,0c0.6,0.5,0.9,1.6,0.2,2.5
		c0.1,0,0.1,0,0.2,0c1.9,0,3.8,0,5.7,0c0.8,0,1.3,0.4,1.6,1.1c0.1,0.2,0.1,0.4,0.1,0.6c0,2.1,0,4.2,0,6.3c0,0.9-0.5,1.4-1.3,1.6
		c0,0,0,0,0,0C9.8,16,6.2,16,2.7,16z M14,10.3c-0.1,0-0.1,0-0.2,0c-1.4,0-2.8,0-4.3,0c-0.1,0-0.2,0-0.2,0c-0.2,0.1-0.4,0.1-0.5,0.2
		c-0.3,0.2-0.4,0.6-0.3,1c0.1,0.4,0.5,0.6,0.9,0.6c1.5,0,3,0,4.5,0c0,0,0.1,0,0.1,0C14,11.5,14,10.9,14,10.3z M5.7,6.4
		c0.7,0,1.2-0.5,1.2-1.2C6.9,4.6,6.4,4,5.7,4C5.1,4,4.6,4.6,4.6,5.2C4.6,5.9,5.1,6.4,5.7,6.4z M12.9,15.4C13,15.4,13,15.4,12.9,15.4
		c0.6,0,1-0.4,1-0.9c0-0.5,0-1.1,0-1.6c0,0,0-0.1,0-0.1c-0.2,0-0.5,0-0.7,0c0,0.1,0,0.1,0,0.2c0,0.4,0,0.7,0,1.1
		C13.2,14.5,13.2,15,12.9,15.4z M13,7c0.1,0.2,0.2,0.4,0.2,0.7c0,0.5,0,1.1,0,1.6c0,0.1,0,0.2,0,0.3c0.3,0,0.5,0,0.7,0
		c0-0.6,0-1.2,0-1.8C13.9,7.3,13.4,7,13,7z"/>
	<path d="M7.3,0c0.2,0.1,0.2,0.3,0.2,0.4c0,0.8,0,1.5,0,2.3c0,0.1,0,0.2-0.1,0.3C7.4,3.1,7.2,3.1,7.1,3C7,3,6.9,2.9,6.9,2.8
		c0-0.3,0-0.7,0-1c0-0.4,0-0.9,0-1.3C6.9,0.2,7,0.1,7.1,0C7.2,0,7.3,0,7.3,0z"/>
	<path d="M5.8,0C6,0.1,6.1,0.3,6,0.4c0,0.4,0,0.8,0,1.2C6,1.9,5.9,2,5.7,2C5.5,2,5.4,1.8,5.4,1.6c0-0.4,0-0.8,0-1.2
		c0-0.2,0.1-0.3,0.2-0.4C5.7,0,5.8,0,5.8,0z"/>
	<path d="M12.1,2.5c0,1-0.8,1.8-1.8,1.8c-1,0-1.8-0.8-1.8-1.8c0-1,0.8-1.8,1.8-1.8C11.3,0.7,12.1,1.5,12.1,2.5z M10.3,3.7
		c0.7,0,1.2-0.5,1.2-1.2c0-0.7-0.5-1.2-1.2-1.2c-0.6,0-1.2,0.5-1.2,1.2C9.1,3.1,9.6,3.7,10.3,3.7z"/>
	<path d="M1.7,11.5c-0.2,0-0.3-0.1-0.3-0.3c0-0.2,0.2-0.3,0.3-0.3C1.9,10.9,2,11,2,11.2C2,11.4,1.9,11.5,1.7,11.5z"/>
	<path d="M9.3,11.5c-0.2,0-0.3-0.1-0.3-0.3c0-0.2,0.2-0.3,0.3-0.3c0.2,0,0.3,0.1,0.3,0.3C9.6,11.4,9.5,11.5,9.3,11.5z"/>
</g>
</svg>
