<?xml version="1.0" encoding="utf-8"?>
<!-- Generator: Adobe Illustrator 26.3.1, SVG Export Plug-In . SVG Version: 6.00 Build 0)  -->
<svg version="1.1" id="Layer_1" xmlns="http://www.w3.org/2000/svg" xmlns:xlink="http://www.w3.org/1999/xlink" x="0px" y="0px"
	 viewBox="0 0 16 16" style="enable-background:new 0 0 16 16;" xml:space="preserve">
<g>
	<path d="M7.5,0h1h0.1C9,0.1,9.4,0.1,9.9,0.2c3.1,0.7,5.5,3.3,6,6.4c0,0.3,0.1,0.6,0.1,0.9v1v0.1c-0.1,0.4-0.1,0.7-0.2,1.1
		c-0.6,3.1-3.3,5.6-6.4,6.1c-0.3,0-0.6,0.1-0.9,0.1h-1H7.4c-0.4-0.1-0.7-0.1-1.1-0.2c-3.1-0.6-5.7-3.3-6.2-6.4C0.1,9.1,0,8.8,0,8.5
		v-1c0.1-0.4,0.1-0.7,0.2-1.1c0.6-3.2,3.3-5.8,6.5-6.3C6.9,0.1,7.2,0,7.5,0z M12.8,13.2c1.9-1.8,2.9-4.8,1.8-7.6
		c-1.1-2.9-4-4.9-7.3-4.6c-3,0.3-5.6,2.6-6.2,5.6C0.8,8.1,1,9.5,1.6,10.9c0.4,0.9,0.9,1.6,1.6,2.3c0.5-1.5,1.4-2.6,2.9-3.3
		C5.2,9.3,4.6,8.4,4.5,7.3s0.2-2,1-2.8c1.3-1.3,3.5-1.3,4.9,0c0.7,0.7,1,1.5,1,2.4c0,1.3-0.5,2.2-1.6,3
		C11.4,10.6,12.3,11.6,12.8,13.2z M7.8,15.1c1.6,0,2.9-0.4,4.1-1.1c0.1-0.1,0.1-0.2,0.1-0.3c-0.4-1.8-1.8-3-3.6-3.1
		c-2-0.2-3.8,1.2-4.3,3.2c0,0.1,0,0.2,0.1,0.3C5.3,14.7,6.6,15.1,7.8,15.1z M5.5,7c0,1.4,1.1,2.5,2.5,2.6l0,0c1.4,0,2.5-1.1,2.6-2.5
		l0,0c0-1.4-1.1-2.5-2.5-2.6l0,0C6.6,4.4,5.5,5.6,5.5,7z"/>
</g>
</svg>
